<svg viewBox="0 0 202 52" fill="none" xmlns="http://www.w3.org/2000/svg">
<path d="M76.9355 24.3369C76.9355 23.6126 76.7484 23.0674 76.374 22.7012C76.0078 22.3268 75.3364 21.9403 74.3599 21.5415C72.5776 20.866 71.2959 20.0767 70.5146 19.1733C69.7334 18.2619 69.3428 17.1877 69.3428 15.9507C69.3428 14.4533 69.8717 13.2529 70.9297 12.3496C71.9958 11.4382 73.3467 10.9824 74.9824 10.9824C76.0729 10.9824 77.0454 11.2144 77.8999 11.6782C78.7544 12.134 79.4095 12.7809 79.8652 13.6191C80.3291 14.4574 80.561 15.4095 80.561 16.4756H76.9844C76.9844 15.6455 76.8053 15.0148 76.4473 14.5835C76.0973 14.144 75.5887 13.9243 74.9214 13.9243C74.2948 13.9243 73.8065 14.1115 73.4565 14.4858C73.1066 14.8521 72.9316 15.3485 72.9316 15.9751C72.9316 16.4634 73.127 16.9069 73.5176 17.3057C73.9082 17.6963 74.5999 18.1032 75.5928 18.5264C77.3262 19.153 78.5835 19.922 79.3647 20.8335C80.1541 21.745 80.5488 22.9046 80.5488 24.3125C80.5488 25.8587 80.0565 27.0672 79.0718 27.938C78.0871 28.8088 76.7484 29.2441 75.0557 29.2441C73.9082 29.2441 72.8625 29.0081 71.9185 28.5361C70.9744 28.0641 70.2339 27.3887 69.6968 26.5098C69.1678 25.6309 68.9033 24.5933 68.9033 23.397H72.5044C72.5044 24.4224 72.7038 25.167 73.1025 25.6309C73.5013 26.0947 74.1523 26.3267 75.0557 26.3267C76.3089 26.3267 76.9355 25.6634 76.9355 24.3369ZM86.0054 15.792L86.103 17.0127C86.8761 16.0361 87.8975 15.5479 89.167 15.5479C90.4854 15.5479 91.4172 16.1419 91.9624 17.3301C92.7192 16.1419 93.7975 15.5479 95.1973 15.5479C97.5085 15.5479 98.6925 17.147 98.7495 20.3452V29H95.2949V20.5649C95.2949 19.8 95.1891 19.2547 94.9775 18.9292C94.766 18.6037 94.4079 18.4409 93.9033 18.4409C93.2604 18.4409 92.7803 18.8356 92.4629 19.625L92.4873 20.04V29H89.0327V20.5894C89.0327 19.8325 88.931 19.2873 88.7275 18.9536C88.5241 18.6118 88.1619 18.4409 87.6411 18.4409C87.047 18.4409 86.575 18.7624 86.2251 19.4053V29H82.7705V15.792H86.0054ZM107.587 29C107.49 28.7965 107.392 28.4548 107.294 27.9746C106.676 28.821 105.838 29.2441 104.78 29.2441C103.673 29.2441 102.753 28.8779 102.021 28.1455C101.297 27.4131 100.935 26.465 100.935 25.3013C100.935 23.9178 101.374 22.8477 102.253 22.0908C103.14 21.334 104.414 20.9474 106.074 20.9312H107.124V19.8691C107.124 19.2751 107.022 18.856 106.818 18.6118C106.615 18.3677 106.318 18.2456 105.927 18.2456C105.065 18.2456 104.633 18.7502 104.633 19.7593H101.179C101.179 18.5386 101.634 17.5335 102.546 16.7441C103.465 15.9466 104.625 15.5479 106.025 15.5479C107.473 15.5479 108.592 15.9263 109.382 16.6831C110.179 17.4318 110.578 18.506 110.578 19.9058V26.1191C110.594 27.2585 110.757 28.1496 111.066 28.7925V29H107.587ZM105.549 26.5342C105.931 26.5342 106.257 26.4569 106.525 26.3022C106.794 26.1476 106.993 25.9645 107.124 25.7529V23.0063H106.293C105.708 23.0063 105.244 23.1935 104.902 23.5679C104.568 23.9422 104.401 24.4427 104.401 25.0693C104.401 26.0459 104.784 26.5342 105.549 26.5342ZM119.599 19.1245L118.452 19.0269C117.508 19.0269 116.869 19.4419 116.535 20.272V29H113.068V15.792H116.328L116.425 17.2202C116.971 16.1053 117.723 15.5479 118.684 15.5479C119.074 15.5479 119.392 15.6007 119.636 15.7065L119.599 19.1245ZM126.008 12.5449V15.792H127.778V18.3921H126.008V24.9473C126.008 25.4681 126.077 25.8262 126.215 26.0215C126.362 26.2168 126.639 26.3145 127.045 26.3145C127.379 26.3145 127.652 26.286 127.863 26.229L127.839 28.9146C127.253 29.1343 126.618 29.2441 125.935 29.2441C123.705 29.2441 122.578 27.9665 122.553 25.4111V18.3921H121.027V15.792H122.553V12.5449H126.008ZM135.615 29V11.2266H140.314C142.39 11.2266 144.042 11.8857 145.271 13.2041C146.507 14.5225 147.138 16.3291 147.163 18.624V21.5049C147.163 23.8405 146.544 25.6756 145.307 27.0103C144.078 28.3368 142.382 29 140.217 29H135.615ZM139.204 14.2173V26.0215H140.278C141.474 26.0215 142.316 25.7082 142.805 25.0815C143.293 24.4468 143.549 23.3563 143.574 21.8101V18.7217C143.574 17.0615 143.342 15.9059 142.878 15.2549C142.414 14.5957 141.625 14.2498 140.51 14.2173H139.204ZM154.914 29.2441C153.14 29.2441 151.757 28.7152 150.764 27.6572C149.771 26.5993 149.274 25.0856 149.274 23.1162V22.0664C149.274 19.9831 149.73 18.3758 150.642 17.2446C151.553 16.1134 152.859 15.5479 154.56 15.5479C156.22 15.5479 157.469 16.0809 158.308 17.147C159.146 18.2049 159.573 19.7756 159.589 21.8589V23.5557H152.717C152.766 24.5322 152.981 25.2484 153.364 25.7041C153.746 26.1517 154.336 26.3755 155.134 26.3755C156.289 26.3755 157.254 25.9808 158.027 25.1914L159.382 27.2788C158.959 27.8647 158.344 28.3408 157.539 28.707C156.733 29.0651 155.858 29.2441 154.914 29.2441ZM152.741 21.1387H156.196V20.8213C156.18 20.0319 156.049 19.4338 155.805 19.0269C155.561 18.62 155.138 18.4165 154.536 18.4165C153.933 18.4165 153.494 18.6322 153.217 19.0635C152.949 19.4948 152.79 20.1865 152.741 21.1387ZM165.705 24.1172L167.377 15.792H170.979L167.353 29H164.057L160.419 15.792H164.033L165.705 24.1172ZM176.228 29H172.761V15.792H176.228V29ZM172.602 12.374C172.602 11.8369 172.773 11.3975 173.115 11.0557C173.457 10.7139 173.912 10.543 174.482 10.543C175.052 10.543 175.507 10.7139 175.849 11.0557C176.191 11.3975 176.362 11.8369 176.362 12.374C176.362 12.903 176.191 13.3424 175.849 13.6924C175.515 14.0423 175.06 14.2173 174.482 14.2173C173.904 14.2173 173.444 14.0423 173.103 13.6924C172.769 13.3424 172.602 12.903 172.602 12.374ZM183.674 26.3755C184.675 26.3755 185.183 25.7244 185.2 24.4224H188.447C188.431 25.8628 187.987 27.0265 187.116 27.9136C186.245 28.8006 185.122 29.2441 183.747 29.2441C182.046 29.2441 180.748 28.7152 179.853 27.6572C178.958 26.5993 178.502 25.0409 178.486 22.9819V21.9321C178.486 19.8569 178.925 18.2741 179.804 17.1836C180.691 16.0931 181.997 15.5479 183.723 15.5479C185.179 15.5479 186.327 15.9995 187.165 16.9028C188.003 17.798 188.431 19.0716 188.447 20.7236H185.2C185.192 19.9831 185.069 19.4134 184.833 19.0146C184.597 18.6159 184.207 18.4165 183.662 18.4165C183.059 18.4165 182.628 18.6322 182.368 19.0635C182.107 19.4867 181.969 20.3127 181.953 21.5415V22.8843C181.953 23.9585 182.006 24.7113 182.111 25.1426C182.217 25.5658 182.392 25.8791 182.636 26.0825C182.88 26.2778 183.226 26.3755 183.674 26.3755ZM195.734 29.2441C193.96 29.2441 192.577 28.7152 191.584 27.6572C190.591 26.5993 190.095 25.0856 190.095 23.1162V22.0664C190.095 19.9831 190.55 18.3758 191.462 17.2446C192.373 16.1134 193.68 15.5479 195.38 15.5479C197.041 15.5479 198.29 16.0809 199.128 17.147C199.966 18.2049 200.393 19.7756 200.41 21.8589V23.5557H193.537C193.586 24.5322 193.802 25.2484 194.184 25.7041C194.567 26.1517 195.157 26.3755 195.954 26.3755C197.11 26.3755 198.074 25.9808 198.847 25.1914L200.202 27.2788C199.779 27.8647 199.165 28.3408 198.359 28.707C197.553 29.0651 196.678 29.2441 195.734 29.2441ZM193.562 21.1387H197.016V20.8213C197 20.0319 196.87 19.4338 196.625 19.0269C196.381 18.62 195.958 18.4165 195.356 18.4165C194.754 18.4165 194.314 18.6322 194.038 19.0635C193.769 19.4948 193.61 20.1865 193.562 21.1387Z" fill="white"/>
<path d="M70.9473 44.9609L72.2363 40.6602H73.7539L71.2344 47.9609C70.8477 49.0273 70.1914 49.5605 69.2656 49.5605C69.0586 49.5605 68.8301 49.5254 68.5801 49.4551V48.3535L68.8496 48.3711C69.209 48.3711 69.4785 48.3047 69.6582 48.1719C69.8418 48.043 69.9863 47.8242 70.0918 47.5156L70.2969 46.9707L68.0703 40.6602H69.6055L70.9473 44.9609ZM78.3418 45.248L80.2168 40.6602H81.998V47H80.5742V42.8047L78.8281 47H77.8613L76.1094 42.7812V47H74.6855V40.6602H76.4785L78.3418 45.248ZM88.9707 47H87.5469V44.4395H85.0801V47H83.6562V40.6602H85.0801V43.3027H87.5469V40.6602H88.9707V47ZM92.0234 42.6758H93.418C93.9375 42.6758 94.3906 42.7656 94.7773 42.9453C95.1641 43.125 95.457 43.377 95.6562 43.7012C95.8594 44.0254 95.9609 44.4023 95.9609 44.832C95.9609 45.4844 95.7305 46.0078 95.2695 46.4023C94.8086 46.7969 94.1953 46.9961 93.4297 47H90.5996V40.6602H92.0234V42.6758ZM98.4395 47H97.0156V40.6602H98.4395V47ZM92.0234 43.8184V45.8633H93.4121C93.7598 45.8633 94.0332 45.7773 94.2324 45.6055C94.4355 45.4297 94.5371 45.1816 94.5371 44.8613C94.5371 44.541 94.4375 44.2891 94.2383 44.1055C94.043 43.918 93.7773 43.8223 93.4414 43.8184H92.0234ZM102.939 47.1172C102.037 47.1172 101.305 46.834 100.742 46.2676C100.184 45.6973 99.9043 44.9395 99.9043 43.9941V43.8184C99.9043 43.1855 100.025 42.6211 100.268 42.125C100.514 41.625 100.857 41.2363 101.299 40.959C101.74 40.6816 102.232 40.543 102.775 40.543C103.639 40.543 104.305 40.8184 104.773 41.3691C105.246 41.9199 105.482 42.6992 105.482 43.707V44.2812H101.34C101.383 44.8047 101.557 45.2188 101.861 45.5234C102.17 45.8281 102.557 45.9805 103.021 45.9805C103.674 45.9805 104.205 45.7168 104.615 45.1895L105.383 45.9219C105.129 46.3008 104.789 46.5957 104.363 46.8066C103.941 47.0137 103.467 47.1172 102.939 47.1172ZM102.77 41.6855C102.379 41.6855 102.062 41.8223 101.82 42.0957C101.582 42.3691 101.43 42.75 101.363 43.2383H104.076V43.1328C104.045 42.6562 103.918 42.2969 103.695 42.0547C103.473 41.8086 103.164 41.6855 102.77 41.6855ZM114.57 41.791H112.514V47H111.09V41.791H109.057V40.6602H114.57V41.791ZM117.939 47.1172C117.037 47.1172 116.305 46.834 115.742 46.2676C115.184 45.6973 114.904 44.9395 114.904 43.9941V43.8184C114.904 43.1855 115.025 42.6211 115.268 42.125C115.514 41.625 115.857 41.2363 116.299 40.959C116.74 40.6816 117.232 40.543 117.775 40.543C118.639 40.543 119.305 40.8184 119.773 41.3691C120.246 41.9199 120.482 42.6992 120.482 43.707V44.2812H116.34C116.383 44.8047 116.557 45.2188 116.861 45.5234C117.17 45.8281 117.557 45.9805 118.021 45.9805C118.674 45.9805 119.205 45.7168 119.615 45.1895L120.383 45.9219C120.129 46.3008 119.789 46.5957 119.363 46.8066C118.941 47.0137 118.467 47.1172 117.939 47.1172ZM117.77 41.6855C117.379 41.6855 117.062 41.8223 116.82 42.0957C116.582 42.3691 116.43 42.75 116.363 43.2383H119.076V43.1328C119.045 42.6562 118.918 42.2969 118.695 42.0547C118.473 41.8086 118.164 41.6855 117.77 41.6855ZM123.869 42.7461L125.076 40.6602H126.658L124.719 43.7832L126.723 47H125.152L123.887 44.832L122.627 47H121.045L123.049 43.7832L121.115 40.6602H122.686L123.869 42.7461ZM132.998 47H131.574V44.4395H129.107V47H127.684V40.6602H129.107V43.3027H131.574V40.6602H132.998V47ZM134.252 43.7715C134.252 43.1504 134.375 42.5918 134.621 42.0957C134.867 41.5957 135.213 41.2129 135.658 40.9473C136.104 40.6777 136.615 40.543 137.193 40.543C138.049 40.543 138.742 40.8184 139.273 41.3691C139.809 41.9199 140.098 42.6504 140.141 43.5605L140.146 43.8945C140.146 44.5195 140.025 45.0781 139.783 45.5703C139.545 46.0625 139.201 46.4434 138.752 46.7129C138.307 46.9824 137.791 47.1172 137.205 47.1172C136.311 47.1172 135.594 46.8203 135.055 46.2266C134.52 45.6289 134.252 44.834 134.252 43.8418V43.7715ZM135.676 43.8945C135.676 44.5469 135.811 45.0586 136.08 45.4297C136.35 45.7969 136.725 45.9805 137.205 45.9805C137.686 45.9805 138.059 45.793 138.324 45.418C138.594 45.043 138.729 44.4941 138.729 43.7715C138.729 43.1309 138.59 42.623 138.312 42.248C138.039 41.873 137.666 41.6855 137.193 41.6855C136.729 41.6855 136.359 41.8711 136.086 42.2422C135.812 42.6094 135.676 43.1602 135.676 43.8945ZM146.645 40.6602V47H145.221V41.8086H143.428L143.311 44.0176C143.236 45.0801 143.031 45.8438 142.695 46.3086C142.363 46.7695 141.854 47 141.166 47H140.727L140.721 45.8164L141.014 45.7871C141.326 45.7441 141.553 45.5547 141.693 45.2188C141.838 44.8789 141.93 44.2617 141.969 43.3672L142.086 40.6602H146.645ZM147.893 43.7715C147.893 43.1504 148.016 42.5918 148.262 42.0957C148.508 41.5957 148.854 41.2129 149.299 40.9473C149.744 40.6777 150.256 40.543 150.834 40.543C151.689 40.543 152.383 40.8184 152.914 41.3691C153.449 41.9199 153.738 42.6504 153.781 43.5605L153.787 43.8945C153.787 44.5195 153.666 45.0781 153.424 45.5703C153.186 46.0625 152.842 46.4434 152.393 46.7129C151.947 46.9824 151.432 47.1172 150.846 47.1172C149.951 47.1172 149.234 46.8203 148.695 46.2266C148.16 45.6289 147.893 44.834 147.893 43.8418V43.7715ZM149.316 43.8945C149.316 44.5469 149.451 45.0586 149.721 45.4297C149.99 45.7969 150.365 45.9805 150.846 45.9805C151.326 45.9805 151.699 45.793 151.965 45.418C152.234 45.043 152.369 44.4941 152.369 43.7715C152.369 43.1309 152.23 42.623 151.953 42.248C151.68 41.873 151.307 41.6855 150.834 41.6855C150.369 41.6855 150 41.8711 149.727 42.2422C149.453 42.6094 149.316 43.1602 149.316 43.8945ZM159.213 41.8086H156.459V47H155.041V40.6602H159.213V41.8086ZM163.977 40.6602H165.395V47H163.977V42.7695L161.492 47H160.074V40.6602H161.492V44.8906L163.977 40.6602ZM170.867 40.6602H172.285V47H170.867V42.7695L168.383 47H166.965V40.6602H168.383V44.8906L170.867 40.6602Z" fill="#788891"/>
<path d="M32.0665 13.8665C33.1949 13.8665 34.1483 14.5936 34.5071 15.5998H43.4927C43.8515 14.5936 44.8048 13.8665 45.9332 13.8665C47.3667 13.8665 48.5332 15.033 48.5332 16.4664C48.5332 17.8999 47.3667 19.0664 45.9332 19.0664C44.8048 19.0664 43.8515 18.3392 43.4927 17.3331H34.5062C34.1474 18.3392 33.1941 19.0664 32.0657 19.0664C30.6322 19.0664 29.4657 17.8999 29.4657 16.4664C29.4657 15.033 30.6331 13.8665 32.0665 13.8665ZM45.9332 17.3331C46.4107 17.3331 46.7999 16.9448 46.7999 16.4664C46.7999 15.988 46.4107 15.5998 45.9332 15.5998C45.4557 15.5998 45.0665 15.988 45.0665 16.4664C45.0665 16.9448 45.4557 17.3331 45.9332 17.3331ZM32.0665 17.3331C32.5441 17.3331 32.9332 16.9448 32.9332 16.4664C32.9332 15.988 32.5441 15.5998 32.0665 15.5998C31.589 15.5998 31.1999 15.988 31.1999 16.4664C31.1999 16.9448 31.589 17.3331 32.0665 17.3331Z" fill="#00B2FF"/>
<path d="M25.1333 19.2259V13.8665C25.1333 13.636 25.2243 13.4158 25.3872 13.2538L28.8539 9.78716C29.0159 9.62423 29.2369 9.53323 29.4666 9.53323H32.2261C32.5849 8.52705 33.5382 7.79993 34.6666 7.79993C36.1001 7.79993 37.2666 8.96644 37.2666 10.3999C37.2666 11.8333 36.1001 12.9998 34.6666 12.9998C33.5382 12.9998 32.5849 12.2727 32.2261 11.2665H29.8254L26.8666 14.2253V19.2259C27.8728 19.5847 28.5999 20.538 28.5999 21.6664C28.5999 23.0998 27.4334 24.2663 25.9999 24.2663C24.5665 24.2663 23.3999 23.0998 23.3999 21.6664C23.3999 20.538 24.1271 19.5847 25.1333 19.2259ZM34.6666 11.2665C35.1441 11.2665 35.5333 10.8783 35.5333 10.3999C35.5333 9.92149 35.1441 9.53323 34.6666 9.53323C34.1891 9.53323 33.7999 9.92149 33.7999 10.3999C33.7999 10.8783 34.1891 11.2665 34.6666 11.2665ZM25.9999 22.533C26.4775 22.533 26.8666 22.1448 26.8666 21.6664C26.8666 21.188 26.4775 20.7997 25.9999 20.7997C25.5224 20.7997 25.1333 21.188 25.1333 21.6664C25.1333 22.1448 25.5224 22.533 25.9999 22.533Z" fill="#00B2FF"/>
<path d="M9.53333 22.533C9.93373 22.533 10.3081 22.6309 10.647 22.7938L12.1333 21.3075V12.9998C12.1333 12.7693 12.2243 12.5491 12.3873 12.3871L21.0609 3.7136C20.8979 3.37474 20.8 3.00035 20.8 2.59996C20.8 1.16651 21.9665 0 23.4 0C24.8335 0 26 1.16651 26 2.59996C26 4.0334 24.8335 5.19991 23.4 5.19991C22.9996 5.19991 22.6252 5.10198 22.2863 4.93905L13.8667 13.3586V21.6663C13.8667 21.8968 13.7757 22.117 13.6127 22.279L11.8725 24.0193C12.0354 24.3581 12.1333 24.7325 12.1333 25.1329C12.1333 26.5664 10.9668 27.7329 9.53333 27.7329C8.09986 27.7329 6.93333 26.5664 6.93333 25.1329C6.93333 23.6995 8.09986 22.533 9.53333 22.533ZM23.4 3.46661C23.8775 3.46661 24.2667 3.07835 24.2667 2.59996C24.2667 2.12156 23.8775 1.7333 23.4 1.7333C22.9225 1.7333 22.5333 2.12156 22.5333 2.59996C22.5333 3.07835 22.9225 3.46661 23.4 3.46661ZM9.53333 25.9996C10.0109 25.9996 10.4 25.6113 10.4 25.1329C10.4 24.6545 10.0109 24.2663 9.53333 24.2663C9.0558 24.2663 8.66667 24.6545 8.66667 25.1329C8.66667 25.6113 9.0558 25.9996 9.53333 25.9996Z" fill="#00B2FF"/>
<path d="M1.73353 12.2926V8.66652C1.73353 8.43599 1.82453 8.21586 1.98746 8.0538L8.05413 1.98723C8.21619 1.8243 8.43719 1.7333 8.66686 1.7333H13.1597C13.5185 0.727121 14.4718 0 15.6002 0C17.0337 0 18.2002 1.16651 18.2002 2.59996C18.2002 4.0334 17.0337 5.19991 15.6002 5.19991C14.4718 5.19991 13.5185 4.47279 13.1597 3.46661H9.02566L3.46686 9.02532V12.2926C4.47306 12.6514 5.2002 13.6047 5.2002 14.7331C5.2002 16.1665 4.03366 17.333 2.60019 17.333C1.16673 17.333 0.00019455 16.1665 0.00019455 14.7331C0.00019455 13.6047 0.727329 12.6514 1.73353 12.2926ZM15.6002 3.46661C16.0777 3.46661 16.4669 3.07835 16.4669 2.59996C16.4669 2.12156 16.0777 1.7333 15.6002 1.7333C15.1227 1.7333 14.7335 2.12156 14.7335 2.59996C14.7335 3.07835 15.1227 3.46661 15.6002 3.46661ZM2.60019 15.5997C3.07773 15.5997 3.46686 15.2115 3.46686 14.7331C3.46686 14.2547 3.07773 13.8664 2.60019 13.8664C2.12266 13.8664 1.73353 14.2547 1.73353 14.7331C1.73353 15.2115 2.12266 15.5997 2.60019 15.5997Z" fill="#00B2FF"/>
<path d="M13.866 46.9595V34.5066C12.8607 34.1478 12.1335 33.1945 12.1335 32.0661C12.1335 30.6327 13.3001 29.4661 14.7335 29.4661C15.8619 29.4661 16.8153 30.1933 17.1741 31.1995H26.1597C26.5185 30.1933 27.4718 29.4661 28.6002 29.4661C29.7286 29.4661 30.6819 30.1933 31.0407 31.1995H36.0414L39.2611 27.9798C39.0981 27.641 39.0002 27.2666 39.0002 26.8662C39.0002 25.4327 40.1667 24.2662 41.6002 24.2662C43.0337 24.2662 44.2002 25.4327 44.2002 26.8662C44.2002 28.2996 43.0337 29.4661 41.6002 29.4661C41.1998 29.4661 40.8254 29.3682 40.4865 29.2053L37.0129 32.6788C36.8509 32.8418 36.6299 32.9328 36.4002 32.9328H31.0407C30.6819 33.9389 29.7286 34.6661 28.6002 34.6661C27.4718 34.6661 26.5185 33.9389 26.1597 32.9328H17.1732C16.9115 33.6668 16.3334 34.2449 15.5993 34.5066V46.9595C16.6055 47.3183 17.3327 48.2716 17.3327 49.4C17.3327 50.8335 16.1661 52 14.7327 52C13.2992 52 12.1327 50.8335 12.1327 49.4C12.1327 48.2716 12.8598 47.3183 13.866 46.9595ZM41.6002 27.7328C42.0777 27.7328 42.4669 27.3446 42.4669 26.8662C42.4669 26.3878 42.0777 25.9995 41.6002 25.9995C41.1227 25.9995 40.7335 26.3878 40.7335 26.8662C40.7335 27.3446 41.1227 27.7328 41.6002 27.7328ZM28.6002 32.9328C29.0777 32.9328 29.4669 32.5445 29.4669 32.0661C29.4669 31.5877 29.0777 31.1995 28.6002 31.1995C28.1227 31.1995 27.7335 31.5877 27.7335 32.0661C27.7335 32.5445 28.1227 32.9328 28.6002 32.9328ZM14.7335 50.2658C15.2111 50.2658 15.6002 49.8775 15.6002 49.3991C15.6002 48.9208 15.2111 48.5325 14.7335 48.5325C14.256 48.5325 13.8669 48.9208 13.8669 49.3991C13.8669 49.8775 14.256 50.2658 14.7335 50.2658ZM14.7335 32.9328C15.2111 32.9328 15.6002 32.5445 15.6002 32.0661C15.6002 31.5877 15.2111 31.1995 14.7335 31.1995C14.256 31.1995 13.8669 31.5877 13.8669 32.0661C13.8669 32.5445 14.256 32.9328 14.7335 32.9328Z" fill="#00B2FF"/>
<path d="M18.2002 17.4925V14.7331C18.2002 14.5026 18.2912 14.2824 18.4542 14.1204L28.8611 3.7136C28.6982 3.37474 28.6002 3.00035 28.6002 2.59996C28.6002 1.16651 29.7668 0 31.2002 0C32.3286 0 33.282 0.727121 33.6408 1.7333H37.2669C37.7453 1.7333 38.1336 2.1207 38.1336 2.59996V4.84112L41.3532 8.06073C41.6921 7.8978 42.0665 7.79987 42.4669 7.79987C43.9004 7.79987 45.0669 8.96638 45.0669 10.3998C45.0669 11.8333 43.9004 12.9998 42.4669 12.9998C41.0334 12.9998 39.8669 11.8333 39.8669 10.3998C39.8669 9.99943 39.9648 9.62504 40.1278 9.28618L36.6542 5.81264C36.4912 5.65057 36.4002 5.43044 36.4002 5.19991V3.46661H33.6408C33.282 4.47279 32.3286 5.19991 31.2002 5.19991C30.7998 5.19991 30.4254 5.10198 30.0866 4.93905L19.9336 15.0919V17.4925C20.9398 17.8513 21.6669 18.8046 21.6669 19.933C21.6669 21.3664 20.5004 22.533 19.0669 22.533C17.6334 22.533 16.4669 21.3664 16.4669 19.933C16.4669 18.8046 17.194 17.8513 18.2002 17.4925ZM42.4669 11.2665C42.9444 11.2665 43.3336 10.8782 43.3336 10.3998C43.3336 9.92143 42.9444 9.53317 42.4669 9.53317C41.9894 9.53317 41.6002 9.92143 41.6002 10.3998C41.6002 10.8782 41.9894 11.2665 42.4669 11.2665ZM31.2002 3.46661C31.6778 3.46661 32.0669 3.07835 32.0669 2.59996C32.0669 2.12156 31.6778 1.7333 31.2002 1.7333C30.7227 1.7333 30.3336 2.12156 30.3336 2.59996C30.3336 3.07835 30.7227 3.46661 31.2002 3.46661ZM19.0669 20.7997C19.5444 20.7997 19.9336 20.4114 19.9336 19.933C19.9336 19.4546 19.5444 19.0663 19.0669 19.0663C18.5894 19.0663 18.2002 19.4546 18.2002 19.933C18.2002 20.4114 18.5894 20.7997 19.0669 20.7997Z" fill="#00B2FF"/>
<path d="M20.8 24.2663C21.9284 24.2663 22.8817 24.9934 23.2405 25.9996H33.4412L38.3873 21.0536C38.5493 20.8906 38.7703 20.7997 39 20.7997H48.1745L50.2667 18.7076V11.6253L43.5803 4.93905C43.2415 5.10198 42.8671 5.19991 42.4667 5.19991C41.0332 5.19991 39.8667 4.0334 39.8667 2.59996C39.8667 1.16651 41.0332 0 42.4667 0C43.9001 0 45.0667 1.16651 45.0667 2.59996C45.0667 3.00035 44.9687 3.37474 44.8058 3.7136L51.7461 10.6538C51.909 10.8158 52 11.0359 52 11.2665V19.0663C52 19.2969 51.909 19.517 51.7461 19.6791L49.1461 22.279C48.984 22.442 48.763 22.533 48.5333 22.533H39.3588L34.4127 27.4789C34.2507 27.6419 34.0297 27.7329 33.8 27.7329H23.2405C22.8817 28.7391 21.9284 29.4662 20.8 29.4662C19.3665 29.4662 18.2 28.2997 18.2 26.8662C18.2 25.4328 19.3665 24.2663 20.8 24.2663ZM42.4667 1.7333C41.9891 1.7333 41.6 2.12156 41.6 2.59996C41.6 3.07835 41.9891 3.46661 42.4667 3.46661C42.9442 3.46661 43.3333 3.07835 43.3333 2.59996C43.3333 2.12156 42.9442 1.7333 42.4667 1.7333ZM20.8 27.7329C21.2775 27.7329 21.6667 27.3446 21.6667 26.8662C21.6667 26.3878 21.2775 25.9996 20.8 25.9996C20.3225 25.9996 19.9333 26.3878 19.9333 26.8662C19.9333 27.3446 20.3225 27.7329 20.8 27.7329Z" fill="#00B2FF"/>
<path d="M2.59997 20.7997C3.00037 20.7997 3.37477 20.8976 3.71363 21.0606L6.9333 17.841V12.8404C5.9271 12.4816 5.19997 11.5283 5.19997 10.3999C5.19997 8.96644 6.3665 7.79993 7.79997 7.79993C9.23343 7.79993 10.4 8.96644 10.4 10.3999C10.4 11.5283 9.67283 12.4816 8.66663 12.8404V18.1998C8.66663 18.4303 8.57563 18.6504 8.4127 18.8125L4.9391 22.286C5.10204 22.6249 5.19997 22.9993 5.19997 23.3997C5.19997 24.528 4.47283 25.4814 3.46663 25.8402V26.5075L10.146 33.1868C10.309 33.3488 10.4 33.569 10.4 33.7995V34.8256C11.4062 35.1844 12.1333 36.1377 12.1333 37.2661C12.1333 38.3945 11.4062 39.3478 10.4 39.7066V41.7597C11.4062 42.1185 12.1333 43.0718 12.1333 44.2002C12.1333 45.6336 10.9668 46.8001 9.5333 46.8001C8.09983 46.8001 6.9333 45.6336 6.9333 44.2002C6.9333 43.0718 7.66043 42.1185 8.66663 41.7597V39.7066C7.66043 39.3478 6.9333 38.3945 6.9333 37.2661C6.9333 36.1377 7.66043 35.1844 8.66663 34.8256V34.1583L1.98723 27.479C1.8243 27.3169 1.7333 27.0968 1.7333 26.8663V25.8402C0.7271 25.4814 -3.24249e-05 24.528 -3.24249e-05 23.3997C-3.24249e-05 21.9662 1.1665 20.7997 2.59997 20.7997ZM7.79997 11.2665C8.2775 11.2665 8.66663 10.8783 8.66663 10.3999C8.66663 9.92149 8.2775 9.53323 7.79997 9.53323C7.32243 9.53323 6.9333 9.92149 6.9333 10.3999C6.9333 10.8783 7.32243 11.2665 7.79997 11.2665ZM9.5333 45.066C10.0108 45.066 10.4 44.6777 10.4 44.1993C10.4 43.7209 10.0108 43.3327 9.5333 43.3327C9.05577 43.3327 8.66663 43.7209 8.66663 44.1993C8.66663 44.6777 9.05577 45.066 9.5333 45.066ZM9.5333 38.1328C10.0108 38.1328 10.4 37.7445 10.4 37.2661C10.4 36.7877 10.0108 36.3995 9.5333 36.3995C9.05577 36.3995 8.66663 36.7877 8.66663 37.2661C8.66663 37.7445 9.05577 38.1328 9.5333 38.1328ZM2.59997 24.2663C3.0775 24.2663 3.46663 23.8781 3.46663 23.3997C3.46663 22.9213 3.0775 22.533 2.59997 22.533C2.12243 22.533 1.7333 22.9213 1.7333 23.3997C1.7333 23.8781 2.12243 24.2663 2.59997 24.2663Z" fill="#00B2FF"/>
</svg>
