<svg width="1920" height="1347" viewBox="0 0 1920 1347" fill="none" xmlns="http://www.w3.org/2000/svg">
              <path d="M297.208 633.738L297.208 1183.09L-178.543 908.413L297.208 633.738Z" stroke="#EBEBEB"/>
              <circle cx="296.896" cy="1182.88" r="5" transform="rotate(-30 296.896 1182.88)" fill="#F2F2F2"/>
              <circle cx="297.053" cy="633.154" r="5" transform="rotate(-30 297.053 633.154)" fill="#F2F2F2"/>
              <path d="M425.594 75.3811L425.594 331.777L203.549 203.579L425.594 75.3811Z" stroke="#EBEBEB"/>
              <path d="M1668.56 747.777L1668.56 491.381L1890.61 619.579L1668.56 747.777Z" stroke="#EBEBEB"/>
              <path d="M1312.62 610.625L836.874 885.299L836.874 335.95L1312.62 610.625Z" stroke="#EBEBEB"/>
              <circle cx="836.739" cy="335.198" r="5" transform="rotate(30 836.739 335.198)" fill="#F2F2F2"/>
              <circle cx="836.896" cy="884.926" r="5" transform="rotate(30 836.896 884.926)" fill="#F2F2F2"/>
              <circle cx="1313.05" cy="610.198" r="5" transform="rotate(30 1313.05 610.198)" fill="#F2F2F2"/>
              </svg>
